{
  "source": "C:\\Users\\Peter\\Desktop\\stuff\\MIUN\\quantitative_research\\video_compression\\videos\\BVI-HD\\BVI-HD_CDVL_videos\\ORIG\\Lightreef_1920x1080_30fps.mp4",
  "output": "C:\\Users\\Peter\\Desktop\\stuff\\MIUN\\quantitative_research\\video_compression\\compressed_videos\\BVI-HD\\hevc\\2\\Lightreef_1920x1080_30fps_hevc.mp4",
  "codec": "hevc",
  "ok": "Input #0, mov,mp4,m4a,3gp,3g2,mj2, from 'C:\\Users\\Peter\\Desktop\\stuff\\MIUN\\quantitative_research\\video_compression\\videos\\BVI-HD\\BVI-HD_CDVL_videos\\ORIG\\Lightreef_1920x1080_30fps.mp4':\n  Metadata:\n    major_brand     : isom\n    minor_version   : 512\n    compatible_brands: isomiso2avc1mp41\n    encoder         : Lavf54.28.101\n  Duration: 00:00:05.00, start: 0.000000, bitrate: 361719 kb/s\n  Stream #0:0[0x1](und): Video: h264 (High 4:4:4 Predictive) (avc1 / 0x31637661), yuv420p(progressive), 1920x1080, 361715 kb/s, 30 fps, 30 tbr, 30 tbn (default)\n    Metadata:\n      handler_name    : VideoHandler\n      vendor_id       : [0][0][0][0]\n[out#0/mp4 @ 000001c51738ab00] Codec AVOption b:a (set bitrate (in bits/s)) has not been used for any stream. The most likely reason is either wrong type (e.g. a video option with no video streams) or that it is a private option of some decoder which was not actually used for any stream.\nStream mapping:\n  Stream #0:0 -> #0:0 (h264 (native) -> hevc (libx265))\nPress [q] to stop, [?] for help\n[libx265 @ 000001c517f00bc0] Unknown option: \"aq-mode.\nx265 [info]: HEVC encoder version 4.1+190-8f11c33ac\nx265 [info]: build info [Windows][GCC 15.1.0][64 bit] 10bit\nx265 [info]: using cpu capabilities: MMX2 SSE2Fast LZCNT SSSE3 SSE4.2 AVX FMA3 BMI2 AVX2\nx265 [info]: Main 10 profile, Level-4 (Main tier)\nx265 [info]: Thread pool created using 12 threads\nx265 [info]: Slices                              : 1\nx265 [info]: frame threads / pool features       : 3 / wpp(17 rows)\nx265 [info]: Coding QT: max CU size, min CU size : 64 / 8\nx265 [info]: Residual QT: max TU size, max depth : 32 / 1 inter / 1 intra\nx265 [info]: ME / range / subpel / merge         : star / 57 / 3 / 3\nx265 [info]: Keyframe min / max / scenecut / bias  : 25 / 250 / 40 / 5.00 \nx265 [info]: Lookahead / bframes / badapt        : 25 / 4 / 2\nx265 [info]: b-pyramid / weightp / weightb       : 1 / 1 / 0\nx265 [info]: References / ref-limit  cu / depth  : 4 / on / on\nx265 [info]: AQ: mode / str / qg-size / cu-tree  : 2 / 1.0 / 32 / 1\nx265 [info]: Rate Control / qCompress            : ABR-2000 kbps / 0.60\nx265 [info]: VBV/HRD buffer / max-rate / init    : 2000 / 2000 / 0.750\nx265 [info]: tools: rect limit-modes rd=4 psy-rd=2.00 rdoq=2 psy-rdoq=1.00\nx265 [info]: tools: rskip mode=1 signhide tmvp strong-intra-smoothing lslices=4\nx265 [info]: tools: deblock sao dhdr10-info\nOutput #0, mp4, to 'C:\\Users\\Peter\\Desktop\\stuff\\MIUN\\quantitative_research\\video_compression\\compressed_videos\\BVI-HD\\hevc\\2\\Lightreef_1920x1080_30fps_hevc.mp4':\n  Metadata:\n    major_brand     : isom\n    minor_version   : 512\n    compatible_brands: isomiso2avc1mp41\n    encoder         : Lavf62.3.100\n  Stream #0:0(und): Video: hevc (hev1 / 0x31766568), yuv420p10le(tv, progressive), 1920x1080, q=2-31, 2000 kb/s, 30 fps, 15360 tbn (default)\n    Metadata:\n      encoder         : Lavc62.11.100 libx265\n      handler_name    : VideoHandler\n      vendor_id       : [0][0][0][0]\n    Side data:\n      cpb: bitrate max/min/avg: 2000000/0/2000000 buffer size: 2000000 vbv_delay: N/A\nframe=    0 fps=0.0 q=0.0 size=       0KiB time=N/A bitrate=N/A speed=N/A elapsed=0:00:00.51    \nframe=    0 fps=0.0 q=0.0 size=       0KiB time=N/A bitrate=N/A speed=N/A elapsed=0:00:01.03    \nframe=    0 fps=0.0 q=0.0 size=       0KiB time=N/A bitrate=N/A speed=N/A elapsed=0:00:01.54    \nframe=    0 fps=0.0 q=0.0 size=       0KiB time=N/A bitrate=N/A speed=N/A elapsed=0:00:02.07    \nframe=    0 fps=0.0 q=0.0 size=       0KiB time=N/A bitrate=N/A speed=N/A elapsed=0:00:02.58    \nframe=    0 fps=0.0 q=0.0 size=       0KiB time=N/A bitrate=N/A speed=N/A elapsed=0:00:03.10    \nframe=    0 fps=0.0 q=0.0 size=       0KiB time=N/A bitrate=N/A speed=N/A elapsed=0:00:03.61    \nframe=    0 fps=0.0 q=0.0 size=       0KiB time=N/A bitrate=N/A speed=N/A elapsed=0:00:04.13    \nframe=    0 fps=0.0 q=0.0 size=       0KiB time=N/A bitrate=N/A speed=N/A elapsed=0:00:04.65    \nframe=    0 fps=0.0 q=0.0 size=       0KiB time=N/A bitrate=N/A speed=N/A elapsed=0:00:05.16    \nframe=    0 fps=0.0 q=0.0 size=       0KiB time=N/A bitrate=N/A speed=N/A elapsed=0:00:05.67    \nframe=    1 fps=0.2 q=39.7 size=       0KiB time=-00:00:00.03 bitrate=N/A speed=N/A elapsed=0:00:06.19    \nframe=    2 fps=0.3 q=47.0 size=       0KiB time=00:00:00.00 bitrate=N/A speed=   0x elapsed=0:00:06.70    \nframe=    4 fps=0.6 q=51.0 size=       0KiB time=00:00:00.06 bitrate=   5.3kbits/s speed=0.00923x elapsed=0:00:07.22    \nframe=    4 fps=0.5 q=51.0 size=       0KiB time=00:00:00.06 bitrate=   5.3kbits/s speed=0.00861x elapsed=0:00:07.74    \nframe=    5 fps=0.6 q=49.4 size=       0KiB time=00:00:00.10 bitrate=   3.5kbits/s speed=0.0121x elapsed=0:00:08.26    \nframe=    6 fps=0.7 q=48.3 size=       0KiB time=00:00:00.13 bitrate=   2.6kbits/s speed=0.0152x elapsed=0:00:08.77    \nframe=    6 fps=0.6 q=48.3 size=       0KiB time=00:00:00.13 bitrate=   2.6kbits/s speed=0.0143x elapsed=0:00:09.29    \nframe=    7 fps=0.7 q=44.2 size=       0KiB time=00:00:00.16 bitrate=   2.1kbits/s speed=0.017x elapsed=0:00:09.80    \nframe=    8 fps=0.8 q=46.3 size=       0KiB time=00:00:00.20 bitrate=   1.8kbits/s speed=0.0194x elapsed=0:00:10.32    \nframe=    9 fps=0.8 q=45.8 size=       0KiB time=00:00:00.23 bitrate=   1.5kbits/s speed=0.0215x elapsed=0:00:10.85    \nframe=    9 fps=0.8 q=45.8 size=       0KiB time=00:00:00.23 bitrate=   1.5kbits/s speed=0.0205x elapsed=0:00:11.36    \nframe=   10 fps=0.8 q=46.3 size=       0KiB time=00:00:00.26 bitrate=   1.3kbits/s speed=0.0225x elapsed=0:00:11.87    \nframe=   11 fps=0.9 q=46.2 size=       0KiB time=00:00:00.30 bitrate=   1.2kbits/s speed=0.0242x elapsed=0:00:12.40    \nframe=   11 fps=0.9 q=46.2 size=       0KiB time=00:00:00.30 bitrate=   1.2kbits/s speed=0.0232x elapsed=0:00:12.91    \nframe=   13 fps=1.0 q=43.7 size=       0KiB time=00:00:00.36 bitrate=   1.0kbits/s speed=0.0273x elapsed=0:00:13.43    \nframe=   13 fps=0.9 q=43.7 size=       0KiB time=00:00:00.36 bitrate=   1.0kbits/s speed=0.0263x elapsed=0:00:13.94    \nframe=   13 fps=0.9 q=43.7 size=       0KiB time=00:00:00.36 bitrate=   1.0kbits/s speed=0.0254x elapsed=0:00:14.45    \nframe=   14 fps=0.9 q=45.1 size=       0KiB time=00:00:00.40 bitrate=   0.9kbits/s speed=0.0267x elapsed=0:00:14.97    \nframe=   15 fps=1.0 q=45.7 size=       0KiB time=00:00:00.43 bitrate=   0.8kbits/s speed=0.028x elapsed=0:00:15.49    \nframe=   16 fps=1.0 q=40.3 size=       0KiB time=00:00:00.46 bitrate=   0.8kbits/s speed=0.0291x elapsed=0:00:16.01    \nframe=   17 fps=1.0 q=44.7 size=       0KiB time=00:00:00.50 bitrate=   0.7kbits/s speed=0.0303x elapsed=0:00:16.51    \nframe=   17 fps=1.0 q=44.7 size=       0KiB time=00:00:00.50 bitrate=   0.7kbits/s speed=0.0293x elapsed=0:00:17.05    \nframe=   18 fps=1.0 q=44.9 size=       0KiB time=00:00:00.53 bitrate=   0.7kbits/s speed=0.0303x elapsed=0:00:17.57    \nframe=   18 fps=1.0 q=44.9 size=       0KiB time=00:00:00.53 bitrate=   0.7kbits/s speed=0.0295x elapsed=0:00:18.09    \nframe=   19 fps=1.0 q=45.2 size=       0KiB time=00:00:00.56 bitrate=   0.6kbits/s speed=0.0304x elapsed=0:00:18.61    \nframe=   20 fps=1.0 q=44.8 size=       0KiB time=00:00:00.60 bitrate=   0.6kbits/s speed=0.0314x elapsed=0:00:19.12    \nframe=   22 fps=1.1 q=42.6 size=       0KiB time=00:00:00.66 bitrate=   0.5kbits/s speed=0.0339x elapsed=0:00:19.65    \nframe=   22 fps=1.1 q=42.6 size=       0KiB time=00:00:00.66 bitrate=   0.5kbits/s speed=0.0331x elapsed=0:00:20.16    \nframe=   22 fps=1.1 q=42.6 size=       0KiB time=00:00:00.66 bitrate=   0.5kbits/s speed=0.0322x elapsed=0:00:20.67    \nframe=   23 fps=1.1 q=45.0 size=       0KiB time=00:00:00.70 bitrate=   0.5kbits/s speed=0.033x elapsed=0:00:21.21    \nframe=   23 fps=1.1 q=45.0 size=       0KiB time=00:00:00.70 bitrate=   0.5kbits/s speed=0.0321x elapsed=0:00:21.78    \nframe=   23 fps=1.0 q=45.0 size=       0KiB time=00:00:00.70 bitrate=   0.5kbits/s speed=0.0314x elapsed=0:00:22.31    \nframe=   24 fps=1.0 q=44.6 size=       0KiB time=00:00:00.73 bitrate=   0.5kbits/s speed=0.0321x elapsed=0:00:22.85    \nframe=   24 fps=1.0 q=44.6 size=       0KiB time=00:00:00.73 bitrate=   0.5kbits/s speed=0.0314x elapsed=0:00:23.36    \nframe=   24 fps=1.0 q=44.6 size=       0KiB time=00:00:00.73 bitrate=   0.5kbits/s speed=0.0307x elapsed=0:00:23.90    \nframe=   25 fps=1.0 q=39.5 size=       0KiB time=00:00:00.76 bitrate=   0.5kbits/s speed=0.0314x elapsed=0:00:24.41    \nframe=   25 fps=1.0 q=39.5 size=       0KiB time=00:00:00.76 bitrate=   0.5kbits/s speed=0.0307x elapsed=0:00:24.96    \nframe=   25 fps=1.0 q=39.5 size=       0KiB time=00:00:00.76 bitrate=   0.5kbits/s speed=0.0301x elapsed=0:00:25.49    \nframe=   26 fps=1.0 q=40.3 size=       0KiB time=00:00:00.80 bitrate=   0.4kbits/s speed=0.0307x elapsed=0:00:26.02    \nframe=   27 fps=1.0 q=45.3 size=       0KiB time=00:00:00.83 bitrate=   0.4kbits/s speed=0.0314x elapsed=0:00:26.54    \nframe=   27 fps=1.0 q=45.3 size=       0KiB time=00:00:00.83 bitrate=   0.4kbits/s speed=0.0308x elapsed=0:00:27.06    \nframe=   27 fps=1.0 q=45.3 size=       0KiB time=00:00:00.83 bitrate=   0.4kbits/s speed=0.0302x elapsed=0:00:27.59    \nframe=   28 fps=1.0 q=45.2 size=       0KiB time=00:00:00.86 bitrate=   0.4kbits/s speed=0.0308x elapsed=0:00:28.11    \nframe=   28 fps=1.0 q=45.2 size=       0KiB time=00:00:00.86 bitrate=   0.4kbits/s speed=0.0302x elapsed=0:00:28.66    \nframe=   28 fps=1.0 q=45.2 size=       0KiB time=00:00:00.86 bitrate=   0.4kbits/s speed=0.0297x elapsed=0:00:29.20    \nframe=   28 fps=0.9 q=45.2 size=       0KiB time=00:00:00.86 bitrate=   0.4kbits/s speed=0.0291x elapsed=0:00:29.76    \nframe=   29 fps=1.0 q=44.9 size=       0KiB time=00:00:00.90 bitrate=   0.4kbits/s speed=0.0297x elapsed=0:00:30.31    \nframe=   29 fps=0.9 q=44.9 size=       0KiB time=00:00:00.90 bitrate=   0.4kbits/s speed=0.0291x elapsed=0:00:30.87    \nframe=   29 fps=0.9 q=44.9 size=       0KiB time=00:00:00.90 bitrate=   0.4kbits/s speed=0.0286x elapsed=0:00:31.51    \nframe=   29 fps=0.9 q=44.9 size=       0KiB time=00:00:00.90 bitrate=   0.4kbits/s speed=0.028x elapsed=0:00:32.17    \nframe=   29 fps=0.9 q=44.9 size=       0KiB time=00:00:00.90 bitrate=   0.4kbits/s speed=0.0274x elapsed=0:00:32.79    \nframe=   29 fps=0.9 q=44.9 size=       0KiB time=00:00:00.90 bitrate=   0.4kbits/s speed=0.0269x elapsed=0:00:33.44    \nframe=   29 fps=0.9 q=44.9 size=       0KiB time=00:00:00.90 bitrate=   0.4kbits/s speed=0.0264x elapsed=0:00:34.06    \nframe=   29 fps=0.8 q=44.9 size=       0KiB time=00:00:00.90 bitrate=   0.4kbits/s speed=0.026x elapsed=0:00:34.65    \nframe=   29 fps=0.8 q=44.9 size=       0KiB time=00:00:00.90 bitrate=   0.4kbits/s speed=0.0256x elapsed=0:00:35.18    \nframe=   29 fps=0.8 q=44.9 size=       0KiB time=00:00:00.90 bitrate=   0.4kbits/s speed=0.0252x elapsed=0:00:35.71    \nframe=   29 fps=0.8 q=44.9 size=       0KiB time=00:00:00.90 bitrate=   0.4kbits/s speed=0.0248x elapsed=0:00:36.25    \nframe=   29 fps=0.8 q=44.9 size=       0KiB time=00:00:00.90 bitrate=   0.4kbits/s speed=0.0244x elapsed=0:00:36.83    \nframe=   30 fps=0.8 q=39.2 size=       0KiB time=00:00:00.93 bitrate=   0.4kbits/s speed=0.025x elapsed=0:00:37.39    \nframe=   30 fps=0.8 q=39.2 size=       0KiB time=00:00:00.93 bitrate=   0.4kbits/s speed=0.0246x elapsed=0:00:37.93    \nframe=   31 fps=0.8 q=42.9 size=       0KiB time=00:00:00.96 bitrate=   0.4kbits/s speed=0.0251x elapsed=0:00:38.47    \nframe=   31 fps=0.8 q=42.9 size=       0KiB time=00:00:00.96 bitrate=   0.4kbits/s speed=0.0248x elapsed=0:00:39.00    \nframe=   31 fps=0.8 q=42.9 size=       0KiB time=00:00:00.96 bitrate=   0.4kbits/s speed=0.0244x elapsed=0:00:39.55    \nframe=   31 fps=0.8 q=42.9 size=       0KiB time=00:00:00.96 bitrate=   0.4kbits/s speed=0.0241x elapsed=0:00:40.10    \nframe=   31 fps=0.8 q=42.9 size=       0KiB time=00:00:00.96 bitrate=   0.4kbits/s speed=0.0238x elapsed=0:00:40.66    \nframe=   31 fps=0.8 q=42.9 size=       0KiB time=00:00:00.96 bitrate=   0.4kbits/s speed=0.0234x elapsed=0:00:41.24    \nframe=   31 fps=0.7 q=42.9 size=       0KiB time=00:00:00.96 bitrate=   0.4kbits/s speed=0.0231x elapsed=0:00:41.82    \nframe=   31 fps=0.7 q=42.9 size=       0KiB time=00:00:00.96 bitrate=   0.4kbits/s speed=0.0228x elapsed=0:00:42.39    \nframe=   31 fps=0.7 q=42.9 size=       0KiB time=00:00:00.96 bitrate=   0.4kbits/s speed=0.0225x elapsed=0:00:42.94    \nframe=   31 fps=0.7 q=42.9 size=       0KiB time=00:00:00.96 bitrate=   0.4kbits/s speed=0.0222x elapsed=0:00:43.47    \nframe=   32 fps=0.7 q=44.9 size=       0KiB time=00:00:01.00 bitrate=   0.4kbits/s speed=0.0227x elapsed=0:00:44.05    \nframe=   32 fps=0.7 q=44.9 size=       0KiB time=00:00:01.00 bitrate=   0.4kbits/s speed=0.0224x elapsed=0:00:44.68    \nframe=   32 fps=0.7 q=44.9 size=       0KiB time=00:00:01.00 bitrate=   0.4kbits/s speed=0.0221x elapsed=0:00:45.26    \nframe=   32 fps=0.7 q=44.9 size=       0KiB time=00:00:01.00 bitrate=   0.4kbits/s speed=0.0218x elapsed=0:00:45.82    \nframe=   32 fps=0.7 q=44.9 size=       0KiB time=00:00:01.00 bitrate=   0.4kbits/s speed=0.0216x elapsed=0:00:46.37    \nframe=   32 fps=0.7 q=44.9 size=       0KiB time=00:00:01.00 bitrate=   0.4kbits/s speed=0.0213x elapsed=0:00:46.91    \nframe=   32 fps=0.7 q=44.9 size=       0KiB time=00:00:01.00 bitrate=   0.4kbits/s speed=0.0211x elapsed=0:00:47.50    \nframe=   32 fps=0.7 q=44.9 size=       0KiB time=00:00:01.00 bitrate=   0.4kbits/s speed=0.0208x elapsed=0:00:48.05    \nframe=   32 fps=0.7 q=44.9 size=       0KiB time=00:00:01.00 bitrate=   0.4kbits/s speed=0.0206x elapsed=0:00:48.57    \nframe=   33 fps=0.7 q=44.4 size=       0KiB time=00:00:01.03 bitrate=   0.3kbits/s speed=0.021x elapsed=0:00:49.11    \nframe=   33 fps=0.7 q=44.4 size=       0KiB time=00:00:01.03 bitrate=   0.3kbits/s speed=0.0208x elapsed=0:00:49.65    \nframe=   33 fps=0.7 q=44.4 size=       0KiB time=00:00:01.03 bitrate=   0.3kbits/s speed=0.0206x elapsed=0:00:50.24    \nframe=   34 fps=0.7 q=39.3 size=       0KiB time=00:00:01.06 bitrate=   0.3kbits/s speed=0.021x elapsed=0:00:50.82    \nframe=   34 fps=0.7 q=39.3 size=       0KiB time=00:00:01.06 bitrate=   0.3kbits/s speed=0.0208x elapsed=0:00:51.37    \nframe=   34 fps=0.7 q=39.3 size=       0KiB time=00:00:01.06 bitrate=   0.3kbits/s speed=0.0206x elapsed=0:00:51.89    \nframe=   35 fps=0.7 q=42.1 size=     256KiB time=00:00:01.10 bitrate=1906.8kbits/s speed=0.021x elapsed=0:00:52.45    \nframe=   35 fps=0.7 q=42.1 size=     256KiB time=00:00:01.10 bitrate=1906.8kbits/s speed=0.0207x elapsed=0:00:53.04    \nframe=   35 fps=0.7 q=42.1 size=     256KiB time=00:00:01.10 bitrate=1906.8kbits/s speed=0.0205x elapsed=0:00:53.61    \nframe=   36 fps=0.7 q=44.6 size=     256KiB time=00:00:01.13 bitrate=1850.7kbits/s speed=0.0209x elapsed=0:00:54.15    \nframe=   36 fps=0.7 q=44.6 size=     256KiB time=00:00:01.13 bitrate=1850.7kbits/s speed=0.0207x elapsed=0:00:54.73    \nframe=   36 fps=0.7 q=44.6 size=     256KiB time=00:00:01.13 bitrate=1850.7kbits/s speed=0.0205x elapsed=0:00:55.28    \nframe=   36 fps=0.6 q=44.6 size=     256KiB time=00:00:01.13 bitrate=1850.7kbits/s speed=0.0203x elapsed=0:00:55.84    \nframe=   36 fps=0.6 q=44.6 size=     256KiB time=00:00:01.13 bitrate=1850.7kbits/s speed=0.0201x elapsed=0:00:56.34    \nframe=   36 fps=0.6 q=44.6 size=     256KiB time=00:00:01.13 bitrate=1850.7kbits/s speed=0.0199x elapsed=0:00:56.86    \nframe=   36 fps=0.6 q=44.6 size=     256KiB time=00:00:01.13 bitrate=1850.7kbits/s speed=0.0197x elapsed=0:00:57.44    \nframe=   36 fps=0.6 q=44.6 size=     256KiB time=00:00:01.13 bitrate=1850.7kbits/s speed=0.0195x elapsed=0:00:58.06    \nframe=   37 fps=0.6 q=44.6 size=     256KiB time=00:00:01.16 bitrate=1797.9kbits/s speed=0.0199x elapsed=0:00:58.62    \nframe=   37 fps=0.6 q=44.6 size=     256KiB time=00:00:01.16 bitrate=1797.9kbits/s speed=0.0197x elapsed=0:00:59.19    \nframe=   37 fps=0.6 q=44.6 size=     256KiB time=00:00:01.16 bitrate=1797.9kbits/s speed=0.0195x elapsed=0:00:59.79    \nframe=   37 fps=0.6 q=44.6 size=     256KiB time=00:00:01.16 bitrate=1797.9kbits/s speed=0.0193x elapsed=0:01:00.37    \nframe=   37 fps=0.6 q=44.6 size=     256KiB time=00:00:01.16 bitrate=1797.9kbits/s speed=0.0192x elapsed=0:01:00.92    \nframe=   37 fps=0.6 q=44.6 size=     256KiB time=00:00:01.16 bitrate=1797.9kbits/s speed=0.019x elapsed=0:01:01.46    \nframe=   38 fps=0.6 q=44.4 size=     256KiB time=00:00:01.20 bitrate=1747.9kbits/s speed=0.0193x elapsed=0:01:02.02    \nframe=   38 fps=0.6 q=44.4 size=     256KiB time=00:00:01.20 bitrate=1747.9kbits/s speed=0.0192x elapsed=0:01:02.56    \nframe=   39 fps=0.6 q=38.9 size=     256KiB time=00:00:01.23 bitrate=1700.7kbits/s speed=0.0195x elapsed=0:01:03.10    \nframe=   39 fps=0.6 q=38.9 size=     256KiB time=00:00:01.23 bitrate=1700.7kbits/s speed=0.0194x elapsed=0:01:03.61    \nframe=   39 fps=0.6 q=38.9 size=     256KiB time=00:00:01.23 bitrate=1700.7kbits/s speed=0.0192x elapsed=0:01:04.13    \nframe=   39 fps=0.6 q=38.9 size=     256KiB time=00:00:01.23 bitrate=1700.7kbits/s speed=0.0191x elapsed=0:01:04.68    \nframe=   39 fps=0.6 q=38.9 size=     256KiB time=00:00:01.23 bitrate=1700.7kbits/s speed=0.0189x elapsed=0:01:05.21    \nframe=   39 fps=0.6 q=38.9 size=     256KiB time=00:00:01.23 bitrate=1700.7kbits/s speed=0.0188x elapsed=0:01:05.72    \nframe=   39 fps=0.6 q=38.9 size=     256KiB time=00:00:01.23 bitrate=1700.7kbits/s speed=0.0186x elapsed=0:01:06.23    \nframe=   40 fps=0.6 q=41.7 size=     256KiB time=00:00:01.26 bitrate=1655.9kbits/s speed=0.019x elapsed=0:01:06.75    \nframe=   40 fps=0.6 q=41.7 size=     256KiB time=00:00:01.26 bitrate=1655.9kbits/s speed=0.0188x elapsed=0:01:07.28    \nframe=   40 fps=0.6 q=41.7 size=     256KiB time=00:00:01.26 bitrate=1655.9kbits/s speed=0.0187x elapsed=0:01:07.80    \nframe=   40 fps=0.6 q=41.7 size=     256KiB time=00:00:01.26 bitrate=1655.9kbits/s speed=0.0185x elapsed=0:01:08.32    \nframe=   40 fps=0.6 q=41.7 size=     256KiB time=00:00:01.26 bitrate=1655.9kbits/s speed=0.0184x elapsed=0:01:08.84    \nframe=   40 fps=0.6 q=41.7 size=     256KiB time=00:00:01.26 bitrate=1655.9kbits/s speed=0.0183x elapsed=0:01:09.37    \nframe=   41 fps=0.6 q=44.4 size=     256KiB time=00:00:01.30 bitrate=1613.5kbits/s speed=0.0186x elapsed=0:01:09.89    \nframe=   41 fps=0.6 q=44.4 size=     256KiB time=00:00:01.30 bitrate=1613.5kbits/s speed=0.0185x elapsed=0:01:10.41    \nframe=   41 fps=0.6 q=44.4 size=     256KiB time=00:00:01.30 bitrate=1613.5kbits/s speed=0.0183x elapsed=0:01:10.93    \nframe=   42 fps=0.6 q=38.7 size=     256KiB time=00:00:01.33 bitrate=1573.1kbits/s speed=0.0187x elapsed=0:01:11.47    \nframe=   42 fps=0.6 q=38.7 size=     256KiB time=00:00:01.33 bitrate=1573.1kbits/s speed=0.0185x elapsed=0:01:12.00    \nframe=   43 fps=0.6 q=42.4 size=     256KiB time=00:00:01.36 bitrate=1534.8kbits/s speed=0.0188x elapsed=0:01:12.55    \nframe=   43 fps=0.6 q=42.4 size=     256KiB time=00:00:01.36 bitrate=1534.8kbits/s speed=0.0187x elapsed=0:01:13.09    \nframe=   43 fps=0.6 q=42.4 size=     256KiB time=00:00:01.36 bitrate=1534.8kbits/s speed=0.0186x elapsed=0:01:13.62    \nframe=   43 fps=0.6 q=42.4 size=     256KiB time=00:00:01.36 bitrate=1534.8kbits/s speed=0.0184x elapsed=0:01:14.15    \nframe=   43 fps=0.6 q=42.4 size=     256KiB time=00:00:01.36 bitrate=1534.8kbits/s speed=0.0183x elapsed=0:01:14.67    \nframe=   44 fps=0.6 q=43.7 size=     256KiB time=00:00:01.40 bitrate=1498.2kbits/s speed=0.0186x elapsed=0:01:15.20    \nframe=   44 fps=0.6 q=43.7 size=     256KiB time=00:00:01.40 bitrate=1498.2kbits/s speed=0.0185x elapsed=0:01:15.73    \nframe=   44 fps=0.6 q=43.7 size=     256KiB time=00:00:01.40 bitrate=1498.2kbits/s speed=0.0184x elapsed=0:01:16.27    \nframe=   44 fps=0.6 q=43.7 size=     256KiB time=00:00:01.40 bitrate=1498.2kbits/s speed=0.0182x elapsed=0:01:16.80    \nframe=   44 fps=0.6 q=43.7 size=     256KiB time=00:00:01.40 bitrate=1498.2kbits/s speed=0.0181x elapsed=0:01:17.34    \nframe=   44 fps=0.6 q=43.7 size=     256KiB time=00:00:01.40 bitrate=1498.2kbits/s speed=0.018x elapsed=0:01:17.87    \nframe=   45 fps=0.6 q=44.3 size=     256KiB time=00:00:01.43 bitrate=1463.4kbits/s speed=0.0183x elapsed=0:01:18.39    \nframe=   45 fps=0.6 q=44.3 size=     256KiB time=00:00:01.43 bitrate=1463.4kbits/s speed=0.0182x elapsed=0:01:18.93    \nframe=   46 fps=0.6 q=39.1 size=     256KiB time=00:00:01.46 bitrate=1430.1kbits/s speed=0.0185x elapsed=0:01:19.47    \nframe=   46 fps=0.6 q=39.1 size=     256KiB time=00:00:01.46 bitrate=1430.1kbits/s speed=0.0183x elapsed=0:01:19.98    \nframe=   46 fps=0.6 q=39.1 size=     256KiB time=00:00:01.46 bitrate=1430.1kbits/s speed=0.0182x elapsed=0:01:20.51    \nframe=   47 fps=0.6 q=43.0 size=     256KiB time=00:00:01.50 bitrate=1398.3kbits/s speed=0.0185x elapsed=0:01:21.03    \nframe=   47 fps=0.6 q=43.0 size=     256KiB time=00:00:01.50 bitrate=1398.3kbits/s speed=0.0184x elapsed=0:01:21.57    \nframe=   48 fps=0.6 q=43.5 size=     256KiB time=00:00:01.53 bitrate=1367.9kbits/s speed=0.0187x elapsed=0:01:22.08    \nframe=   48 fps=0.6 q=43.5 size=     256KiB time=00:00:01.53 bitrate=1367.9kbits/s speed=0.0186x elapsed=0:01:22.60    \nframe=   48 fps=0.6 q=43.5 size=     256KiB time=00:00:01.53 bitrate=1367.9kbits/s speed=0.0184x elapsed=0:01:23.13    \nframe=   48 fps=0.6 q=43.5 size=     256KiB time=00:00:01.53 bitrate=1367.9kbits/s speed=0.0183x elapsed=0:01:23.65    \nframe=   48 fps=0.6 q=43.5 size=     256KiB time=00:00:01.53 bitrate=1367.9kbits/s speed=0.0182x elapsed=0:01:24.18    \nframe=   49 fps=0.6 q=44.2 size=     256KiB time=00:00:01.56 bitrate=1338.8kbits/s speed=0.0185x elapsed=0:01:24.69    \nframe=   49 fps=0.6 q=44.2 size=     256KiB time=00:00:01.56 bitrate=1338.8kbits/s speed=0.0184x elapsed=0:01:25.22    \nframe=   49 fps=0.6 q=44.2 size=     256KiB time=00:00:01.56 bitrate=1338.8kbits/s speed=0.0183x elapsed=0:01:25.76    \nframe=   49 fps=0.6 q=44.2 size=     256KiB time=00:00:01.56 bitrate=1338.8kbits/s speed=0.0182x elapsed=0:01:26.27    \nframe=   50 fps=0.6 q=43.8 size=     256KiB time=00:00:01.60 bitrate=1310.9kbits/s speed=0.0184x elapsed=0:01:26.81    \nframe=   51 fps=0.6 q=38.9 size=     256KiB time=00:00:01.63 bitrate=1284.2kbits/s speed=0.0187x elapsed=0:01:27.35    \nframe=   51 fps=0.6 q=38.9 size=     256KiB time=00:00:01.63 bitrate=1284.2kbits/s speed=0.0186x elapsed=0:01:27.86    \nframe=   51 fps=0.6 q=38.9 size=     256KiB time=00:00:01.63 bitrate=1284.2kbits/s speed=0.0185x elapsed=0:01:28.38    \nframe=   51 fps=0.6 q=38.9 size=     256KiB time=00:00:01.63 bitrate=1284.2kbits/s speed=0.0184x elapsed=0:01:28.91    \nframe=   52 fps=0.6 q=42.2 size=     256KiB time=00:00:01.66 bitrate=1258.5kbits/s speed=0.0186x elapsed=0:01:29.42    \nframe=   52 fps=0.6 q=42.2 size=     256KiB time=00:00:01.66 bitrate=1258.5kbits/s speed=0.0185x elapsed=0:01:29.95    \nframe=   52 fps=0.6 q=42.2 size=     256KiB time=00:00:01.66 bitrate=1258.5kbits/s speed=0.0184x elapsed=0:01:30.48    \nframe=   53 fps=0.6 q=44.2 size=     256KiB time=00:00:01.70 bitrate=1233.8kbits/s speed=0.0187x elapsed=0:01:31.00    \nframe=   53 fps=0.6 q=44.2 size=     256KiB time=00:00:01.70 bitrate=1233.8kbits/s speed=0.0186x elapsed=0:01:31.52    \nframe=   53 fps=0.6 q=44.2 size=     256KiB time=00:00:01.70 bitrate=1233.8kbits/s speed=0.0185x elapsed=0:01:32.08    \nframe=   53 fps=0.6 q=44.2 size=     256KiB time=00:00:01.70 bitrate=1233.8kbits/s speed=0.0183x elapsed=0:01:32.65    \nframe=   54 fps=0.6 q=39.0 size=     256KiB time=00:00:01.73 bitrate=1210.1kbits/s speed=0.0186x elapsed=0:01:33.20    \nframe=   54 fps=0.6 q=39.0 size=     256KiB time=00:00:01.73 bitrate=1210.1kbits/s speed=0.0185x elapsed=0:01:33.77    \nframe=   54 fps=0.6 q=39.0 size=     256KiB time=00:00:01.73 bitrate=1210.1kbits/s speed=0.0184x elapsed=0:01:34.29    \nframe=   54 fps=0.6 q=39.0 size=     256KiB time=00:00:01.73 bitrate=1210.1kbits/s speed=0.0183x elapsed=0:01:34.81    \nframe=   55 fps=0.6 q=43.4 size=     256KiB time=00:00:01.76 bitrate=1187.3kbits/s speed=0.0185x elapsed=0:01:35.34    \nframe=   55 fps=0.6 q=43.4 size=     256KiB time=00:00:01.76 bitrate=1187.3kbits/s speed=0.0184x elapsed=0:01:35.86    \nframe=   55 fps=0.6 q=43.4 size=     256KiB time=00:00:01.76 bitrate=1187.3kbits/s speed=0.0183x elapsed=0:01:36.37    \nframe=   56 fps=0.6 q=44.4 size=     256KiB time=00:00:01.80 bitrate=1165.3kbits/s speed=0.0186x elapsed=0:01:36.92    \nframe=   56 fps=0.6 q=44.4 size=     256KiB time=00:00:01.80 bitrate=1165.3kbits/s speed=0.0185x elapsed=0:01:37.45    \nframe=   56 fps=0.6 q=44.4 size=     256KiB time=00:00:01.80 bitrate=1165.3kbits/s speed=0.0184x elapsed=0:01:37.98    \nframe=   57 fps=0.6 q=39.1 size=     256KiB time=00:00:01.83 bitrate=1144.1kbits/s speed=0.0186x elapsed=0:01:38.50    \nframe=   57 fps=0.6 q=39.1 size=     256KiB time=00:00:01.83 bitrate=1144.1kbits/s speed=0.0185x elapsed=0:01:39.04    \nframe=   58 fps=0.6 q=42.3 size=     256KiB time=00:00:01.86 bitrate=1123.7kbits/s speed=0.0187x elapsed=0:01:39.56    \nframe=   58 fps=0.6 q=42.3 size=     256KiB time=00:00:01.86 bitrate=1123.7kbits/s speed=0.0187x elapsed=0:01:40.08    \nframe=   58 fps=0.6 q=42.3 size=     256KiB time=00:00:01.86 bitrate=1123.7kbits/s speed=0.0186x elapsed=0:01:40.62    \nframe=   58 fps=0.6 q=42.3 size=     256KiB time=00:00:01.86 bitrate=1123.7kbits/s speed=0.0185x elapsed=0:01:41.13    \nframe=   58 fps=0.6 q=42.3 size=     256KiB time=00:00:01.86 bitrate=1123.7kbits/s speed=0.0184x elapsed=0:01:41.65    \nframe=   58 fps=0.6 q=42.3 size=     256KiB time=00:00:01.86 bitrate=1123.7kbits/s speed=0.0183x elapsed=0:01:42.21    \nframe=   60 fps=0.6 q=43.6 size=     256KiB time=00:00:01.93 bitrate=1084.9kbits/s speed=0.0188x elapsed=0:01:42.73    \nframe=   60 fps=0.6 q=43.6 size=     256KiB time=00:00:01.93 bitrate=1084.9kbits/s speed=0.0187x elapsed=0:01:43.25    \nframe=   60 fps=0.6 q=43.6 size=     256KiB time=00:00:01.93 bitrate=1084.9kbits/s speed=0.0186x elapsed=0:01:43.78    \nframe=   60 fps=0.6 q=43.6 size=     256KiB time=00:00:01.93 bitrate=1084.9kbits/s speed=0.0185x elapsed=0:01:44.31    \nframe=   60 fps=0.6 q=43.6 size=     256KiB time=00:00:01.93 bitrate=1084.9kbits/s speed=0.0184x elapsed=0:01:44.81    \nframe=   61 fps=0.6 q=39.8 size=     256KiB time=00:00:01.96 bitrate=1066.5kbits/s speed=0.0187x elapsed=0:01:45.33    \nframe=   61 fps=0.6 q=39.8 size=     256KiB time=00:00:01.96 bitrate=1066.5kbits/s speed=0.0186x elapsed=0:01:45.87    \nframe=   61 fps=0.6 q=39.8 size=     256KiB time=00:00:01.96 bitrate=1066.5kbits/s speed=0.0185x elapsed=0:01:46.39    \nframe=   61 fps=0.6 q=39.8 size=     256KiB time=00:00:01.96 bitrate=1066.5kbits/s speed=0.0184x elapsed=0:01:46.91    \nframe=   62 fps=0.6 q=41.7 size=     256KiB time=00:00:02.00 bitrate=1048.8kbits/s speed=0.0186x elapsed=0:01:47.42    \nframe=   63 fps=0.6 q=44.6 size=     256KiB time=00:00:02.03 bitrate=1031.6kbits/s speed=0.0188x elapsed=0:01:47.94    \nframe=   64 fps=0.6 q=44.8 size=     256KiB time=00:00:02.06 bitrate=1014.9kbits/s speed=0.0191x elapsed=0:01:48.47    \nframe=   64 fps=0.6 q=44.8 size=     256KiB time=00:00:02.06 bitrate=1014.9kbits/s speed=0.019x elapsed=0:01:48.98    \nframe=   65 fps=0.6 q=44.8 size=     256KiB time=00:00:02.10 bitrate= 998.8kbits/s speed=0.0192x elapsed=0:01:49.50    \nframe=   66 fps=0.6 q=39.4 size=     256KiB time=00:00:02.13 bitrate= 983.2kbits/s speed=0.0194x elapsed=0:01:50.03    \nframe=   66 fps=0.6 q=39.4 size=     256KiB time=00:00:02.13 bitrate= 983.2kbits/s speed=0.0193x elapsed=0:01:50.57    \nframe=   66 fps=0.6 q=39.4 size=     256KiB time=00:00:02.13 bitrate= 983.2kbits/s speed=0.0192x elapsed=0:01:51.11    \nframe=   66 fps=0.6 q=39.4 size=     256KiB time=00:00:02.13 bitrate= 983.2kbits/s speed=0.0191x elapsed=0:01:51.69    \nframe=   66 fps=0.6 q=39.4 size=     256KiB time=00:00:02.13 bitrate= 983.2kbits/s speed=0.019x elapsed=0:01:52.25    \nframe=   66 fps=0.6 q=39.4 size=     256KiB time=00:00:02.13 bitrate= 983.2kbits/s speed=0.0189x elapsed=0:01:52.80    \nframe=   66 fps=0.6 q=39.4 size=     256KiB time=00:00:02.13 bitrate= 983.2kbits/s speed=0.0188x elapsed=0:01:53.34    \nframe=   66 fps=0.6 q=39.4 size=     256KiB time=00:00:02.13 bitrate= 983.2kbits/s speed=0.0187x elapsed=0:01:53.89    \nframe=   67 fps=0.6 q=39.9 size=     256KiB time=00:00:02.16 bitrate= 968.1kbits/s speed=0.0189x elapsed=0:01:54.41    \nframe=   68 fps=0.6 q=43.8 size=     512KiB time=00:00:02.20 bitrate=1906.7kbits/s speed=0.0191x elapsed=0:01:54.94    \nframe=   68 fps=0.6 q=43.8 size=     512KiB time=00:00:02.20 bitrate=1906.7kbits/s speed=0.0191x elapsed=0:01:55.46    \nframe=   68 fps=0.6 q=43.8 size=     512KiB time=00:00:02.20 bitrate=1906.7kbits/s speed=0.019x elapsed=0:01:55.97    \nframe=   69 fps=0.6 q=45.4 size=     512KiB time=00:00:02.23 bitrate=1878.2kbits/s speed=0.0192x elapsed=0:01:56.48    \nframe=   70 fps=0.6 q=45.4 size=     512KiB time=00:00:02.26 bitrate=1850.6kbits/s speed=0.0194x elapsed=0:01:57.00    \nframe=   70 fps=0.6 q=45.4 size=     512KiB time=00:00:02.26 bitrate=1850.6kbits/s speed=0.0193x elapsed=0:01:57.53    \nframe=   71 fps=0.6 q=44.6 size=     512KiB time=00:00:02.30 bitrate=1823.8kbits/s speed=0.0195x elapsed=0:01:58.04    \nframe=   71 fps=0.6 q=44.6 size=     512KiB time=00:00:02.30 bitrate=1823.8kbits/s speed=0.0194x elapsed=0:01:58.56    \nframe=   71 fps=0.6 q=44.6 size=     512KiB time=00:00:02.30 bitrate=1823.8kbits/s speed=0.0193x elapsed=0:01:59.17    \nframe=   71 fps=0.6 q=44.6 size=     512KiB time=00:00:02.30 bitrate=1823.8kbits/s speed=0.0192x elapsed=0:01:59.69    \nframe=   72 fps=0.6 q=39.0 size=     512KiB time=00:00:02.33 bitrate=1797.7kbits/s speed=0.0194x elapsed=0:02:00.26    \nframe=   72 fps=0.6 q=39.0 size=     512KiB time=00:00:02.33 bitrate=1797.7kbits/s speed=0.0193x elapsed=0:02:00.83    \nframe=   72 fps=0.6 q=39.0 size=     512KiB time=00:00:02.33 bitrate=1797.7kbits/s speed=0.0192x elapsed=0:02:01.43    \nframe=   72 fps=0.6 q=39.0 size=     512KiB time=00:00:02.33 bitrate=1797.7kbits/s speed=0.0191x elapsed=0:02:02.07    \nframe=   72 fps=0.6 q=39.0 size=     512KiB time=00:00:02.33 bitrate=1797.7kbits/s speed=0.019x elapsed=0:02:02.76    \nframe=   72 fps=0.6 q=39.0 size=     512KiB time=00:00:02.33 bitrate=1797.7kbits/s speed=0.0189x elapsed=0:02:03.36    \nframe=   72 fps=0.6 q=39.0 size=     512KiB time=00:00:02.33 bitrate=1797.7kbits/s speed=0.0188x elapsed=0:02:03.91    \nframe=   72 fps=0.6 q=39.0 size=     512KiB time=00:00:02.33 bitrate=1797.7kbits/s speed=0.0187x elapsed=0:02:04.45    \nframe=   72 fps=0.6 q=39.0 size=     512KiB time=00:00:02.33 bitrate=1797.7kbits/s speed=0.0187x elapsed=0:02:05.00    \nframe=   72 fps=0.6 q=39.0 size=     512KiB time=00:00:02.33 bitrate=1797.7kbits/s speed=0.0186x elapsed=0:02:05.52    \nframe=   73 fps=0.6 q=42.5 size=     512KiB time=00:00:02.36 bitrate=1772.4kbits/s speed=0.0188x elapsed=0:02:06.08    \nframe=   73 fps=0.6 q=42.5 size=     512KiB time=00:00:02.36 bitrate=1772.4kbits/s speed=0.0187x elapsed=0:02:06.60    \nframe=   73 fps=0.6 q=42.5 size=     512KiB time=00:00:02.36 bitrate=1772.4kbits/s speed=0.0186x elapsed=0:02:07.14    \nframe=   73 fps=0.6 q=42.5 size=     512KiB time=00:00:02.36 bitrate=1772.4kbits/s speed=0.0185x elapsed=0:02:07.68    \nframe=   73 fps=0.6 q=42.5 size=     512KiB time=00:00:02.36 bitrate=1772.4kbits/s speed=0.0185x elapsed=0:02:08.18    \nframe=   73 fps=0.6 q=42.5 size=     512KiB time=00:00:02.36 bitrate=1772.4kbits/s speed=0.0184x elapsed=0:02:08.72    \nframe=   73 fps=0.6 q=42.5 size=     512KiB time=00:00:02.36 bitrate=1772.4kbits/s speed=0.0183x elapsed=0:02:09.29    \nframe=   73 fps=0.6 q=42.5 size=     512KiB time=00:00:02.36 bitrate=1772.4kbits/s speed=0.0182x elapsed=0:02:09.83    \nframe=   73 fps=0.6 q=42.5 size=     512KiB time=00:00:02.36 bitrate=1772.4kbits/s speed=0.0182x elapsed=0:02:10.37    \nframe=   73 fps=0.6 q=42.5 size=     512KiB time=00:00:02.36 bitrate=1772.4kbits/s speed=0.0181x elapsed=0:02:10.91    \nframe=   73 fps=0.6 q=42.5 size=     512KiB time=00:00:02.36 bitrate=1772.4kbits/s speed=0.018x elapsed=0:02:11.47    \nframe=   73 fps=0.6 q=42.5 size=     512KiB time=00:00:02.36 bitrate=1772.4kbits/s speed=0.0179x elapsed=0:02:12.00    \nframe=   73 fps=0.6 q=42.5 size=     512KiB time=00:00:02.36 bitrate=1772.4kbits/s speed=0.0179x elapsed=0:02:12.53    \nframe=   74 fps=0.6 q=44.7 size=     512KiB time=00:00:02.40 bitrate=1747.8kbits/s speed=0.018x elapsed=0:02:13.07    \nframe=   75 fps=0.6 q=44.7 size=     512KiB time=00:00:02.43 bitrate=1723.8kbits/s speed=0.0182x elapsed=0:02:13.62    \nframe=   75 fps=0.6 q=44.7 size=     512KiB time=00:00:02.43 bitrate=1723.8kbits/s speed=0.0181x elapsed=0:02:14.17    \nframe=   75 fps=0.6 q=44.7 size=     512KiB time=00:00:02.43 bitrate=1723.8kbits/s speed=0.0181x elapsed=0:02:14.77    \nframe=   75 fps=0.6 q=44.7 size=     512KiB time=00:00:02.43 bitrate=1723.8kbits/s speed=0.018x elapsed=0:02:15.39    \nframe=   75 fps=0.6 q=44.7 size=     512KiB time=00:00:02.43 bitrate=1723.8kbits/s speed=0.0179x elapsed=0:02:15.99    \nframe=   75 fps=0.5 q=44.7 size=     512KiB time=00:00:02.43 bitrate=1723.8kbits/s speed=0.0178x elapsed=0:02:16.52    \nframe=   75 fps=0.5 q=44.7 size=     512KiB time=00:00:02.43 bitrate=1723.8kbits/s speed=0.0177x elapsed=0:02:17.09    \nframe=   75 fps=0.5 q=44.7 size=     512KiB time=00:00:02.43 bitrate=1723.8kbits/s speed=0.0177x elapsed=0:02:17.67    \nframe=   75 fps=0.5 q=44.7 size=     512KiB time=00:00:02.43 bitrate=1723.8kbits/s speed=0.0176x elapsed=0:02:18.25    \nframe=   75 fps=0.5 q=44.7 size=     512KiB time=00:00:02.43 bitrate=1723.8kbits/s speed=0.0175x elapsed=0:02:18.79    \nframe=   75 fps=0.5 q=44.7 size=     512KiB time=00:00:02.43 bitrate=1723.8kbits/s speed=0.0175x elapsed=0:02:19.33    \nframe=   76 fps=0.5 q=39.3 size=     512KiB time=00:00:02.46 bitrate=1700.5kbits/s speed=0.0176x elapsed=0:02:19.90    \nframe=   76 fps=0.5 q=39.3 size=     512KiB time=00:00:02.46 bitrate=1700.5kbits/s speed=0.0176x elapsed=0:02:20.47    \nframe=   76 fps=0.5 q=39.3 size=     512KiB time=00:00:02.46 bitrate=1700.5kbits/s speed=0.0175x elapsed=0:02:20.99    \nframe=   76 fps=0.5 q=39.3 size=     512KiB time=00:00:02.46 bitrate=1700.5kbits/s speed=0.0174x elapsed=0:02:21.51    \nframe=   76 fps=0.5 q=39.3 size=     512KiB time=00:00:02.46 bitrate=1700.5kbits/s speed=0.0174x elapsed=0:02:22.07    \nframe=   76 fps=0.5 q=39.3 size=     512KiB time=00:00:02.46 bitrate=1700.5kbits/s speed=0.0173x elapsed=0:02:22.68    \nframe=   77 fps=0.5 q=42.2 size=     512KiB time=00:00:02.50 bitrate=1677.9kbits/s speed=0.0175x elapsed=0:02:23.22    \nframe=   77 fps=0.5 q=42.2 size=     512KiB time=00:00:02.50 bitrate=1677.9kbits/s speed=0.0174x elapsed=0:02:23.75    \nframe=   77 fps=0.5 q=42.2 size=     512KiB time=00:00:02.50 bitrate=1677.9kbits/s speed=0.0173x elapsed=0:02:24.29    \nframe=   77 fps=0.5 q=42.2 size=     512KiB time=00:00:02.50 bitrate=1677.9kbits/s speed=0.0173x elapsed=0:02:24.83    \nframe=   78 fps=0.5 q=45.0 size=     512KiB time=00:00:02.53 bitrate=1655.8kbits/s speed=0.0174x elapsed=0:02:25.41    \nframe=   78 fps=0.5 q=45.0 size=     512KiB time=00:00:02.53 bitrate=1655.8kbits/s speed=0.0174x elapsed=0:02:25.98    \nframe=   79 fps=0.5 q=45.2 size=     512KiB time=00:00:02.56 bitrate=1634.3kbits/s speed=0.0175x elapsed=0:02:26.50    \nframe=   79 fps=0.5 q=45.2 size=     512KiB time=00:00:02.56 bitrate=1634.3kbits/s speed=0.0175x elapsed=0:02:27.04    \nframe=   79 fps=0.5 q=45.2 size=     512KiB time=00:00:02.56 bitrate=1634.3kbits/s speed=0.0174x elapsed=0:02:27.58    \nframe=   79 fps=0.5 q=45.2 size=     512KiB time=00:00:02.56 bitrate=1634.3kbits/s speed=0.0173x elapsed=0:02:28.12    \nframe=   79 fps=0.5 q=45.2 size=     512KiB time=00:00:02.56 bitrate=1634.3kbits/s speed=0.0173x elapsed=0:02:28.65    \nframe=   79 fps=0.5 q=45.2 size=     512KiB time=00:00:02.56 bitrate=1634.3kbits/s speed=0.0172x elapsed=0:02:29.19    \nframe=   79 fps=0.5 q=45.2 size=     512KiB time=00:00:02.56 bitrate=1634.3kbits/s speed=0.0171x elapsed=0:02:29.74    \nframe=   79 fps=0.5 q=45.2 size=     512KiB time=00:00:02.56 bitrate=1634.3kbits/s speed=0.0171x elapsed=0:02:30.34    \nframe=   79 fps=0.5 q=45.2 size=     512KiB time=00:00:02.56 bitrate=1634.3kbits/s speed=0.017x elapsed=0:02:31.00    \nframe=   79 fps=0.5 q=45.2 size=     512KiB time=00:00:02.56 bitrate=1634.3kbits/s speed=0.0169x elapsed=0:02:31.61    \nframe=   79 fps=0.5 q=45.2 size=     512KiB time=00:00:02.56 bitrate=1634.3kbits/s speed=0.0169x elapsed=0:02:32.20    \nframe=   79 fps=0.5 q=45.2 size=     512KiB time=00:00:02.56 bitrate=1634.3kbits/s speed=0.0168x elapsed=0:02:32.78    \nframe=   79 fps=0.5 q=45.2 size=     512KiB time=00:00:02.56 bitrate=1634.3kbits/s speed=0.0167x elapsed=0:02:33.32    \nframe=   79 fps=0.5 q=45.2 size=     512KiB time=00:00:02.56 bitrate=1634.3kbits/s speed=0.0167x elapsed=0:02:33.89    \nframe=   80 fps=0.5 q=45.0 size=     512KiB time=00:00:02.60 bitrate=1613.3kbits/s speed=0.0168x elapsed=0:02:34.42    \nframe=   80 fps=0.5 q=45.0 size=     512KiB time=00:00:02.60 bitrate=1613.3kbits/s speed=0.0168x elapsed=0:02:34.96    \nframe=   80 fps=0.5 q=45.0 size=     512KiB time=00:00:02.60 bitrate=1613.3kbits/s speed=0.0167x elapsed=0:02:35.48    \nframe=   81 fps=0.5 q=39.2 size=     512KiB time=00:00:02.63 bitrate=1592.9kbits/s speed=0.0169x elapsed=0:02:36.03    \nframe=   82 fps=0.5 q=42.7 size=     512KiB time=00:00:02.66 bitrate=1573.0kbits/s speed=0.017x elapsed=0:02:36.63    \nframe=   82 fps=0.5 q=42.7 size=     512KiB time=00:00:02.66 bitrate=1573.0kbits/s speed=0.017x elapsed=0:02:37.16    \nframe=   82 fps=0.5 q=42.7 size=     512KiB time=00:00:02.66 bitrate=1573.0kbits/s speed=0.0169x elapsed=0:02:37.74    \nframe=   82 fps=0.5 q=42.7 size=     512KiB time=00:00:02.66 bitrate=1573.0kbits/s speed=0.0168x elapsed=0:02:38.27    \nframe=   82 fps=0.5 q=42.7 size=     512KiB time=00:00:02.66 bitrate=1573.0kbits/s speed=0.0168x elapsed=0:02:38.78    \nframe=   82 fps=0.5 q=42.7 size=     512KiB time=00:00:02.66 bitrate=1573.0kbits/s speed=0.0167x elapsed=0:02:39.30    \nframe=   83 fps=0.5 q=44.9 size=     512KiB time=00:00:02.70 bitrate=1553.6kbits/s speed=0.0169x elapsed=0:02:39.85    \nframe=   83 fps=0.5 q=44.9 size=     512KiB time=00:00:02.70 bitrate=1553.6kbits/s speed=0.0168x elapsed=0:02:40.41    \nframe=   83 fps=0.5 q=44.9 size=     512KiB time=00:00:02.70 bitrate=1553.6kbits/s speed=0.0168x elapsed=0:02:40.96    \nframe=   83 fps=0.5 q=44.9 size=     512KiB time=00:00:02.70 bitrate=1553.6kbits/s speed=0.0167x elapsed=0:02:41.49    \nframe=   83 fps=0.5 q=44.9 size=     512KiB time=00:00:02.70 bitrate=1553.6kbits/s speed=0.0167x elapsed=0:02:42.00    \nframe=   84 fps=0.5 q=45.0 size=     512KiB time=00:00:02.73 bitrate=1534.6kbits/s speed=0.0168x elapsed=0:02:42.52    \nframe=   84 fps=0.5 q=45.0 size=     512KiB time=00:00:02.73 bitrate=1534.6kbits/s speed=0.0168x elapsed=0:02:43.08    \nframe=   85 fps=0.5 q=39.7 size=     512KiB time=00:00:02.76 bitrate=1516.1kbits/s speed=0.0169x elapsed=0:02:43.62    \nframe=   85 fps=0.5 q=39.7 size=     512KiB time=00:00:02.76 bitrate=1516.1kbits/s speed=0.0169x elapsed=0:02:44.15    \nframe=   85 fps=0.5 q=39.7 size=     512KiB time=00:00:02.76 bitrate=1516.1kbits/s speed=0.0168x elapsed=0:02:44.66    \nframe=   85 fps=0.5 q=39.7 size=     512KiB time=00:00:02.76 bitrate=1516.1kbits/s speed=0.0167x elapsed=0:02:45.18    \nframe=   85 fps=0.5 q=39.7 size=     512KiB time=00:00:02.76 bitrate=1516.1kbits/s speed=0.0167x elapsed=0:02:45.71    \nframe=   86 fps=0.5 q=40.6 size=     512KiB time=00:00:02.80 bitrate=1498.1kbits/s speed=0.0168x elapsed=0:02:46.26    \nframe=   86 fps=0.5 q=40.6 size=     512KiB time=00:00:02.80 bitrate=1498.1kbits/s speed=0.0168x elapsed=0:02:46.79    \nframe=   86 fps=0.5 q=40.6 size=     512KiB time=00:00:02.80 bitrate=1498.1kbits/s speed=0.0167x elapsed=0:02:47.32    \nframe=   87 fps=0.5 q=45.0 size=     512KiB time=00:00:02.83 bitrate=1480.5kbits/s speed=0.0169x elapsed=0:02:47.85    \nframe=   88 fps=0.5 q=45.4 size=     512KiB time=00:00:02.86 bitrate=1463.3kbits/s speed=0.017x elapsed=0:02:48.39    \nframe=   88 fps=0.5 q=45.4 size=     512KiB time=00:00:02.86 bitrate=1463.3kbits/s speed=0.017x elapsed=0:02:48.92    \nframe=   88 fps=0.5 q=45.4 size=     512KiB time=00:00:02.86 bitrate=1463.3kbits/s speed=0.0169x elapsed=0:02:49.45    \nframe=   88 fps=0.5 q=45.4 size=     512KiB time=00:00:02.86 bitrate=1463.3kbits/s speed=0.0169x elapsed=0:02:50.01    \nframe=   89 fps=0.5 q=45.6 size=     512KiB time=00:00:02.90 bitrate=1446.4kbits/s speed=0.017x elapsed=0:02:50.52    \nframe=   89 fps=0.5 q=45.6 size=     512KiB time=00:00:02.90 bitrate=1446.4kbits/s speed=0.017x elapsed=0:02:51.05    \nframe=   89 fps=0.5 q=45.6 size=     512KiB time=00:00:02.90 bitrate=1446.4kbits/s speed=0.0169x elapsed=0:02:51.58    \nframe=   90 fps=0.5 q=39.4 size=     512KiB time=00:00:02.93 bitrate=1430.0kbits/s speed=0.017x elapsed=0:02:52.12    \nframe=   90 fps=0.5 q=39.4 size=     512KiB time=00:00:02.93 bitrate=1430.0kbits/s speed=0.017x elapsed=0:02:52.65    \nframe=   90 fps=0.5 q=39.4 size=     512KiB time=00:00:02.93 bitrate=1430.0kbits/s speed=0.0169x elapsed=0:02:53.16    \nframe=   91 fps=0.5 q=42.9 size=     512KiB time=00:00:02.96 bitrate=1413.9kbits/s speed=0.0171x elapsed=0:02:53.71    \nframe=   91 fps=0.5 q=42.9 size=     512KiB time=00:00:02.96 bitrate=1413.9kbits/s speed=0.017x elapsed=0:02:54.24    \nframe=   91 fps=0.5 q=42.9 size=     512KiB time=00:00:02.96 bitrate=1413.9kbits/s speed=0.017x elapsed=0:02:54.76    \nframe=   92 fps=0.5 q=45.4 size=     512KiB time=00:00:03.00 bitrate=1398.2kbits/s speed=0.0171x elapsed=0:02:55.31    \nframe=   92 fps=0.5 q=45.4 size=     512KiB time=00:00:03.00 bitrate=1398.2kbits/s speed=0.0171x elapsed=0:02:55.84    \nframe=   92 fps=0.5 q=45.4 size=     512KiB time=00:00:03.00 bitrate=1398.2kbits/s speed=0.017x elapsed=0:02:56.38    \nframe=   92 fps=0.5 q=45.4 size=     512KiB time=00:00:03.00 bitrate=1398.2kbits/s speed=0.017x elapsed=0:02:56.92    \nframe=   93 fps=0.5 q=45.5 size=     512KiB time=00:00:03.03 bitrate=1382.9kbits/s speed=0.0171x elapsed=0:02:57.44    \nframe=   93 fps=0.5 q=45.5 size=     512KiB time=00:00:03.03 bitrate=1382.9kbits/s speed=0.017x elapsed=0:02:57.98    \nframe=   93 fps=0.5 q=45.5 size=     512KiB time=00:00:03.03 bitrate=1382.9kbits/s speed=0.017x elapsed=0:02:58.51    \nframe=   94 fps=0.5 q=39.6 size=     512KiB time=00:00:03.06 bitrate=1367.8kbits/s speed=0.0171x elapsed=0:02:59.04    \nframe=   94 fps=0.5 q=39.6 size=     512KiB time=00:00:03.06 bitrate=1367.8kbits/s speed=0.0171x elapsed=0:02:59.55    \nframe=   94 fps=0.5 q=39.6 size=     512KiB time=00:00:03.06 bitrate=1367.8kbits/s speed=0.017x elapsed=0:03:00.07    \nframe=   96 fps=0.5 q=45.3 size=     768KiB time=00:00:03.13 bitrate=2008.0kbits/s speed=0.0173x elapsed=0:03:00.59    \nframe=   96 fps=0.5 q=45.3 size=     768KiB time=00:00:03.13 bitrate=2008.0kbits/s speed=0.0173x elapsed=0:03:01.12    \nframe=   96 fps=0.5 q=45.3 size=     768KiB time=00:00:03.13 bitrate=2008.0kbits/s speed=0.0172x elapsed=0:03:01.65    \nframe=   97 fps=0.5 q=45.5 size=     768KiB time=00:00:03.16 bitrate=1986.9kbits/s speed=0.0174x elapsed=0:03:02.17    \nframe=   98 fps=0.5 q=45.3 size=     768KiB time=00:00:03.20 bitrate=1966.2kbits/s speed=0.0175x elapsed=0:03:02.72    \nframe=   98 fps=0.5 q=45.3 size=     768KiB time=00:00:03.20 bitrate=1966.2kbits/s speed=0.0175x elapsed=0:03:03.25    \nframe=   99 fps=0.5 q=39.6 size=     768KiB time=00:00:03.23 bitrate=1945.9kbits/s speed=0.0176x elapsed=0:03:03.76    \nframe=  100 fps=0.5 q=43.0 size=     768KiB time=00:00:03.26 bitrate=1926.1kbits/s speed=0.0177x elapsed=0:03:04.28    \nframe=  100 fps=0.5 q=43.0 size=     768KiB time=00:00:03.26 bitrate=1926.1kbits/s speed=0.0177x elapsed=0:03:04.80    \nframe=  100 fps=0.5 q=43.0 size=     768KiB time=00:00:03.26 bitrate=1926.1kbits/s speed=0.0176x elapsed=0:03:05.33    \nframe=  100 fps=0.5 q=43.0 size=     768KiB time=00:00:03.26 bitrate=1926.1kbits/s speed=0.0176x elapsed=0:03:05.85    \nframe=  100 fps=0.5 q=43.0 size=     768KiB time=00:00:03.26 bitrate=1926.1kbits/s speed=0.0175x elapsed=0:03:06.40    \nframe=  101 fps=0.5 q=45.6 size=     768KiB time=00:00:03.30 bitrate=1906.6kbits/s speed=0.0177x elapsed=0:03:06.93    \nframe=  101 fps=0.5 q=45.6 size=     768KiB time=00:00:03.30 bitrate=1906.6kbits/s speed=0.0176x elapsed=0:03:07.46    \nframe=  101 fps=0.5 q=45.6 size=     768KiB time=00:00:03.30 bitrate=1906.6kbits/s speed=0.0176x elapsed=0:03:07.98    \nframe=  102 fps=0.5 q=45.7 size=     768KiB time=00:00:03.33 bitrate=1887.5kbits/s speed=0.0177x elapsed=0:03:08.51    \nframe=  103 fps=0.5 q=39.6 size=     768KiB time=00:00:03.36 bitrate=1868.9kbits/s speed=0.0178x elapsed=0:03:09.03    \nframe=  103 fps=0.5 q=39.6 size=     768KiB time=00:00:03.36 bitrate=1868.9kbits/s speed=0.0178x elapsed=0:03:09.56    \nframe=  103 fps=0.5 q=39.6 size=     768KiB time=00:00:03.36 bitrate=1868.9kbits/s speed=0.0177x elapsed=0:03:10.13    \nframe=  103 fps=0.5 q=39.6 size=     768KiB time=00:00:03.36 bitrate=1868.9kbits/s speed=0.0177x elapsed=0:03:10.69    \nframe=  103 fps=0.5 q=39.6 size=     768KiB time=00:00:03.36 bitrate=1868.9kbits/s speed=0.0176x elapsed=0:03:11.23    \nframe=  104 fps=0.5 q=42.9 size=     768KiB time=00:00:03.40 bitrate=1850.5kbits/s speed=0.0177x elapsed=0:03:11.78    \nframe=  104 fps=0.5 q=42.9 size=     768KiB time=00:00:03.40 bitrate=1850.5kbits/s speed=0.0177x elapsed=0:03:12.30    \nframe=  105 fps=0.5 q=45.7 size=     768KiB time=00:00:03.43 bitrate=1832.6kbits/s speed=0.0178x elapsed=0:03:12.81    \nframe=  105 fps=0.5 q=45.7 size=     768KiB time=00:00:03.43 bitrate=1832.6kbits/s speed=0.0178x elapsed=0:03:13.34    \nframe=  105 fps=0.5 q=45.7 size=     768KiB time=00:00:03.43 bitrate=1832.6kbits/s speed=0.0177x elapsed=0:03:13.85    \nframe=  106 fps=0.5 q=45.5 size=     768KiB time=00:00:03.46 bitrate=1814.9kbits/s speed=0.0178x elapsed=0:03:14.37    \nframe=  107 fps=0.5 q=45.8 size=     768KiB time=00:00:03.50 bitrate=1797.7kbits/s speed=0.018x elapsed=0:03:14.90    \nframe=  107 fps=0.5 q=45.8 size=     768KiB time=00:00:03.50 bitrate=1797.7kbits/s speed=0.0179x elapsed=0:03:15.41    \nframe=  107 fps=0.5 q=45.8 size=     768KiB time=00:00:03.50 bitrate=1797.7kbits/s speed=0.0179x elapsed=0:03:15.96    \nframe=  107 fps=0.5 q=45.8 size=     768KiB time=00:00:03.50 bitrate=1797.7kbits/s speed=0.0178x elapsed=0:03:16.48    \nframe=  107 fps=0.5 q=45.8 size=     768KiB time=00:00:03.50 bitrate=1797.7kbits/s speed=0.0178x elapsed=0:03:17.03    \nframe=  108 fps=0.5 q=39.7 size=     768KiB time=00:00:03.53 bitrate=1780.7kbits/s speed=0.0179x elapsed=0:03:17.56    \nframe=  108 fps=0.5 q=39.7 size=     768KiB time=00:00:03.53 bitrate=1780.7kbits/s speed=0.0178x elapsed=0:03:18.07    \nframe=  108 fps=0.5 q=39.7 size=     768KiB time=00:00:03.53 bitrate=1780.7kbits/s speed=0.0178x elapsed=0:03:18.59    \nframe=  109 fps=0.5 q=43.6 size=     768KiB time=00:00:03.56 bitrate=1764.1kbits/s speed=0.0179x elapsed=0:03:19.12    \nframe=  109 fps=0.5 q=43.6 size=     768KiB time=00:00:03.56 bitrate=1764.1kbits/s speed=0.0179x elapsed=0:03:19.64    \nframe=  110 fps=0.5 q=45.5 size=     768KiB time=00:00:03.60 bitrate=1747.7kbits/s speed=0.018x elapsed=0:03:20.16    \nframe=  110 fps=0.5 q=45.5 size=     768KiB time=00:00:03.60 bitrate=1747.7kbits/s speed=0.0179x elapsed=0:03:20.67    \nframe=  110 fps=0.5 q=45.5 size=     768KiB time=00:00:03.60 bitrate=1747.7kbits/s speed=0.0179x elapsed=0:03:21.20    \nframe=  110 fps=0.5 q=45.5 size=     768KiB time=00:00:03.60 bitrate=1747.7kbits/s speed=0.0178x elapsed=0:03:21.73    \nframe=  111 fps=0.5 q=39.9 size=     768KiB time=00:00:03.63 bitrate=1731.7kbits/s speed=0.018x elapsed=0:03:22.26    \nframe=  111 fps=0.5 q=39.9 size=     768KiB time=00:00:03.63 bitrate=1731.7kbits/s speed=0.0179x elapsed=0:03:22.81    \nframe=  111 fps=0.5 q=39.9 size=     768KiB time=00:00:03.63 bitrate=1731.7kbits/s speed=0.0179x elapsed=0:03:23.33    \nframe=  111 fps=0.5 q=39.9 size=     768KiB time=00:00:03.63 bitrate=1731.7kbits/s speed=0.0178x elapsed=0:03:23.85    \nframe=  111 fps=0.5 q=39.9 size=     768KiB time=00:00:03.63 bitrate=1731.7kbits/s speed=0.0178x elapsed=0:03:24.38    \nframe=  112 fps=0.5 q=42.9 size=     768KiB time=00:00:03.66 bitrate=1715.9kbits/s speed=0.0179x elapsed=0:03:24.91    \nframe=  113 fps=0.6 q=45.4 size=     768KiB time=00:00:03.70 bitrate=1700.5kbits/s speed=0.018x elapsed=0:03:25.42    \nframe=  113 fps=0.5 q=45.4 size=     768KiB time=00:00:03.70 bitrate=1700.5kbits/s speed=0.018x elapsed=0:03:25.95    \nframe=  113 fps=0.5 q=45.4 size=     768KiB time=00:00:03.70 bitrate=1700.5kbits/s speed=0.0179x elapsed=0:03:26.48    \nframe=  114 fps=0.6 q=39.9 size=     768KiB time=00:00:03.73 bitrate=1685.3kbits/s speed=0.018x elapsed=0:03:27.00    \nframe=  114 fps=0.5 q=39.9 size=     768KiB time=00:00:03.73 bitrate=1685.3kbits/s speed=0.018x elapsed=0:03:27.52    \nframe=  114 fps=0.5 q=39.9 size=     768KiB time=00:00:03.73 bitrate=1685.3kbits/s speed=0.0179x elapsed=0:03:28.04    \nframe=  114 fps=0.5 q=39.9 size=     768KiB time=00:00:03.73 bitrate=1685.3kbits/s speed=0.0179x elapsed=0:03:28.56    \nframe=  114 fps=0.5 q=39.9 size=     768KiB time=00:00:03.73 bitrate=1685.3kbits/s speed=0.0179x elapsed=0:03:29.07    \nframe=  115 fps=0.5 q=44.6 size=     768KiB time=00:00:03.76 bitrate=1670.4kbits/s speed=0.018x elapsed=0:03:29.60    \nframe=  115 fps=0.5 q=44.6 size=     768KiB time=00:00:03.76 bitrate=1670.4kbits/s speed=0.0179x elapsed=0:03:30.11    \nframe=  115 fps=0.5 q=44.6 size=     768KiB time=00:00:03.76 bitrate=1670.4kbits/s speed=0.0179x elapsed=0:03:30.63    \nframe=  116 fps=0.5 q=45.6 size=     768KiB time=00:00:03.80 bitrate=1655.7kbits/s speed=0.018x elapsed=0:03:31.17    \nframe=  116 fps=0.5 q=45.6 size=     768KiB time=00:00:03.80 bitrate=1655.7kbits/s speed=0.018x elapsed=0:03:31.67    \nframe=  117 fps=0.6 q=39.7 size=     768KiB time=00:00:03.83 bitrate=1641.3kbits/s speed=0.0181x elapsed=0:03:32.19    \nframe=  118 fps=0.6 q=42.9 size=     768KiB time=00:00:03.83 bitrate=1641.3kbits/s speed=0.018x elapsed=0:03:32.72    \nframe=  118 fps=0.6 q=42.9 size=     768KiB time=00:00:03.86 bitrate=1627.2kbits/s speed=0.0181x elapsed=0:03:33.26    \nframe=  118 fps=0.6 q=42.9 size=     768KiB time=00:00:03.86 bitrate=1627.2kbits/s speed=0.0181x elapsed=0:03:33.79    \nframe=  118 fps=0.6 q=42.9 size=     768KiB time=00:00:03.86 bitrate=1627.2kbits/s speed=0.018x elapsed=0:03:34.33    \nframe=  118 fps=0.5 q=42.9 size=     768KiB time=00:00:03.86 bitrate=1627.2kbits/s speed=0.018x elapsed=0:03:34.85    \nframe=  119 fps=0.6 q=45.8 size=     768KiB time=00:00:03.90 bitrate=1613.3kbits/s speed=0.0181x elapsed=0:03:35.39    \nframe=  119 fps=0.6 q=45.8 size=     768KiB time=00:00:03.90 bitrate=1613.3kbits/s speed=0.0181x elapsed=0:03:35.94    \nframe=  119 fps=0.5 q=45.8 size=     768KiB time=00:00:03.90 bitrate=1613.3kbits/s speed=0.018x elapsed=0:03:36.46    \nframe=  119 fps=0.5 q=45.8 size=     768KiB time=00:00:03.90 bitrate=1613.3kbits/s speed=0.018x elapsed=0:03:36.97    \nframe=  119 fps=0.5 q=45.8 size=     768KiB time=00:00:03.90 bitrate=1613.3kbits/s speed=0.0179x elapsed=0:03:37.49    \nframe=  120 fps=0.6 q=45.0 size=     768KiB time=00:00:03.93 bitrate=1599.6kbits/s speed=0.018x elapsed=0:03:38.00    \nframe=  120 fps=0.5 q=45.0 size=     768KiB time=00:00:03.93 bitrate=1599.6kbits/s speed=0.018x elapsed=0:03:38.52    \nframe=  121 fps=0.6 q=39.5 size=     768KiB time=00:00:03.96 bitrate=1586.2kbits/s speed=0.0181x elapsed=0:03:39.04    \nframe=  121 fps=0.6 q=39.5 size=     768KiB time=00:00:03.96 bitrate=1586.2kbits/s speed=0.0181x elapsed=0:03:39.57    \nframe=  121 fps=0.5 q=39.5 size=     768KiB time=00:00:03.96 bitrate=1586.2kbits/s speed=0.018x elapsed=0:03:40.10    \nframe=  121 fps=0.5 q=39.5 size=     768KiB time=00:00:03.96 bitrate=1586.2kbits/s speed=0.018x elapsed=0:03:40.78    \nframe=  121 fps=0.5 q=39.5 size=     768KiB time=00:00:03.96 bitrate=1586.2kbits/s speed=0.0179x elapsed=0:03:41.35    \nframe=  121 fps=0.5 q=39.5 size=     768KiB time=00:00:03.96 bitrate=1586.2kbits/s speed=0.0179x elapsed=0:03:41.89    \nframe=  122 fps=0.5 q=42.5 size=     768KiB time=00:00:04.00 bitrate=1573.0kbits/s speed=0.018x elapsed=0:03:42.40    \nframe=  122 fps=0.5 q=42.5 size=     768KiB time=00:00:04.00 bitrate=1573.0kbits/s speed=0.0179x elapsed=0:03:42.92    \nframe=  122 fps=0.5 q=42.5 size=     768KiB time=00:00:04.00 bitrate=1573.0kbits/s speed=0.0179x elapsed=0:03:43.46    \nframe=  123 fps=0.5 q=45.2 size=     768KiB time=00:00:04.03 bitrate=1560.0kbits/s speed=0.018x elapsed=0:03:43.98    \nframe=  123 fps=0.5 q=45.2 size=     768KiB time=00:00:04.03 bitrate=1560.0kbits/s speed=0.018x elapsed=0:03:44.51    \nframe=  123 fps=0.5 q=45.2 size=     768KiB time=00:00:04.03 bitrate=1560.0kbits/s speed=0.0179x elapsed=0:03:45.05    \nframe=  124 fps=0.5 q=44.9 size=     768KiB time=00:00:04.06 bitrate=1547.2kbits/s speed=0.018x elapsed=0:03:45.57    \nframe=  124 fps=0.5 q=44.9 size=     768KiB time=00:00:04.06 bitrate=1547.2kbits/s speed=0.018x elapsed=0:03:46.11    \nframe=  124 fps=0.5 q=44.9 size=     768KiB time=00:00:04.06 bitrate=1547.2kbits/s speed=0.0179x elapsed=0:03:46.64    \nframe=  124 fps=0.5 q=44.9 size=     768KiB time=00:00:04.06 bitrate=1547.2kbits/s speed=0.0179x elapsed=0:03:47.17    \nframe=  125 fps=0.5 q=44.6 size=     768KiB time=00:00:04.10 bitrate=1534.6kbits/s speed=0.018x elapsed=0:03:47.70    \nframe=  126 fps=0.6 q=39.4 size=     768KiB time=00:00:04.13 bitrate=1522.2kbits/s speed=0.0181x elapsed=0:03:48.24    \nframe=  126 fps=0.6 q=39.4 size=     768KiB time=00:00:04.13 bitrate=1522.2kbits/s speed=0.0181x elapsed=0:03:48.77    \nframe=  126 fps=0.5 q=39.4 size=     768KiB time=00:00:04.13 bitrate=1522.2kbits/s speed=0.018x elapsed=0:03:49.30    \nframe=  126 fps=0.5 q=39.4 size=     768KiB time=00:00:04.13 bitrate=1522.2kbits/s speed=0.018x elapsed=0:03:49.83    \nframe=  127 fps=0.6 q=42.9 size=     768KiB time=00:00:04.16 bitrate=1510.0kbits/s speed=0.0181x elapsed=0:03:50.35    \nframe=  127 fps=0.6 q=42.9 size=     768KiB time=00:00:04.16 bitrate=1510.0kbits/s speed=0.018x elapsed=0:03:50.89    \nframe=  127 fps=0.5 q=42.9 size=     768KiB time=00:00:04.16 bitrate=1510.0kbits/s speed=0.018x elapsed=0:03:51.44    \nframe=  127 fps=0.5 q=42.9 size=     768KiB time=00:00:04.16 bitrate=1510.0kbits/s speed=0.018x elapsed=0:03:51.97    \nframe=  128 fps=0.6 q=44.8 size=     768KiB time=00:00:04.20 bitrate=1498.0kbits/s speed=0.0181x elapsed=0:03:52.51    \nframe=  128 fps=0.5 q=44.8 size=     768KiB time=00:00:04.20 bitrate=1498.0kbits/s speed=0.018x elapsed=0:03:53.03    \nframe=  129 fps=0.6 q=39.1 size=     768KiB time=00:00:04.23 bitrate=1486.3kbits/s speed=0.0181x elapsed=0:03:53.56    \nframe=  130 fps=0.6 q=42.3 size=    1024KiB time=00:00:04.26 bitrate=1966.2kbits/s speed=0.0182x elapsed=0:03:54.10    \nframe=  130 fps=0.6 q=42.3 size=    1024KiB time=00:00:04.26 bitrate=1966.2kbits/s speed=0.0182x elapsed=0:03:54.63    \nframe=  130 fps=0.6 q=42.3 size=    1024KiB time=00:00:04.26 bitrate=1966.2kbits/s speed=0.0181x elapsed=0:03:55.17    \nframe=  131 fps=0.6 q=44.3 size=    1024KiB time=00:00:04.30 bitrate=1950.9kbits/s speed=0.0182x elapsed=0:03:55.72    \nframe=  131 fps=0.6 q=44.3 size=    1024KiB time=00:00:04.30 bitrate=1950.9kbits/s speed=0.0182x elapsed=0:03:56.25    \nframe=  131 fps=0.6 q=44.3 size=    1024KiB time=00:00:04.30 bitrate=1950.9kbits/s speed=0.0182x elapsed=0:03:56.77    \nframe=  131 fps=0.6 q=44.3 size=    1024KiB time=00:00:04.30 bitrate=1950.9kbits/s speed=0.0181x elapsed=0:03:57.29    \nframe=  132 fps=0.6 q=44.8 size=    1024KiB time=00:00:04.33 bitrate=1935.9kbits/s speed=0.0182x elapsed=0:03:57.83    \nframe=  132 fps=0.6 q=44.8 size=    1024KiB time=00:00:04.33 bitrate=1935.9kbits/s speed=0.0182x elapsed=0:03:58.35    \nframe=  132 fps=0.6 q=44.8 size=    1024KiB time=00:00:04.33 bitrate=1935.9kbits/s speed=0.0181x elapsed=0:03:58.87    \nframe=  133 fps=0.6 q=39.3 size=    1024KiB time=00:00:04.36 bitrate=1921.1kbits/s speed=0.0182x elapsed=0:03:59.44    \nframe=  134 fps=0.6 q=40.0 size=    1024KiB time=00:00:04.40 bitrate=1906.6kbits/s speed=0.0183x elapsed=0:03:59.96    \nframe=  134 fps=0.6 q=40.0 size=    1024KiB time=00:00:04.40 bitrate=1906.6kbits/s speed=0.0183x elapsed=0:04:00.51    \nframe=  135 fps=0.6 q=45.2 size=    1024KiB time=00:00:04.43 bitrate=1892.2kbits/s speed=0.0184x elapsed=0:04:01.04    \nframe=  135 fps=0.6 q=45.2 size=    1024KiB time=00:00:04.43 bitrate=1892.2kbits/s speed=0.0184x elapsed=0:04:01.55    \nframe=  136 fps=0.6 q=44.9 size=    1024KiB time=00:00:04.46 bitrate=1878.1kbits/s speed=0.0185x elapsed=0:04:02.07    \nframe=  137 fps=0.6 q=45.4 size=    1024KiB time=00:00:04.50 bitrate=1864.2kbits/s speed=0.0185x elapsed=0:04:02.59    \nframe=  137 fps=0.6 q=45.4 size=    1024KiB time=00:00:04.50 bitrate=1864.2kbits/s speed=0.0185x elapsed=0:04:03.09    \nframe=  137 fps=0.6 q=45.4 size=    1024KiB time=00:00:04.50 bitrate=1864.2kbits/s speed=0.0185x elapsed=0:04:03.63    \nframe=  137 fps=0.6 q=45.4 size=    1024KiB time=00:00:04.50 bitrate=1864.2kbits/s speed=0.0184x elapsed=0:04:04.16    \nframe=  137 fps=0.6 q=45.4 size=    1024KiB time=00:00:04.50 bitrate=1864.2kbits/s speed=0.0184x elapsed=0:04:04.67    \nframe=  137 fps=0.6 q=45.4 size=    1024KiB time=00:00:04.50 bitrate=1864.2kbits/s speed=0.0184x elapsed=0:04:05.20    \nframe=  137 fps=0.6 q=45.4 size=    1024KiB time=00:00:04.50 bitrate=1864.2kbits/s speed=0.0183x elapsed=0:04:05.72    \nframe=  137 fps=0.6 q=45.4 size=    1024KiB time=00:00:04.50 bitrate=1864.2kbits/s speed=0.0183x elapsed=0:04:06.24    \nframe=  138 fps=0.6 q=39.7 size=    1024KiB time=00:00:04.53 bitrate=1850.5kbits/s speed=0.0184x elapsed=0:04:06.78    \nframe=  138 fps=0.6 q=39.7 size=    1024KiB time=00:00:04.53 bitrate=1850.5kbits/s speed=0.0183x elapsed=0:04:07.32    \nframe=  138 fps=0.6 q=39.7 size=    1024KiB time=00:00:04.53 bitrate=1850.5kbits/s speed=0.0183x elapsed=0:04:07.84    \nframe=  138 fps=0.6 q=39.7 size=    1024KiB time=00:00:04.53 bitrate=1850.5kbits/s speed=0.0183x elapsed=0:04:08.37    \nframe=  139 fps=0.6 q=42.8 size=    1024KiB time=00:00:04.56 bitrate=1837.0kbits/s speed=0.0183x elapsed=0:04:08.90    \nframe=  139 fps=0.6 q=42.8 size=    1024KiB time=00:00:04.56 bitrate=1837.0kbits/s speed=0.0183x elapsed=0:04:09.42    \nframe=  140 fps=0.6 q=45.4 size=    1024KiB time=00:00:04.60 bitrate=1823.7kbits/s speed=0.0184x elapsed=0:04:09.96    \nframe=  140 fps=0.6 q=45.4 size=    1024KiB time=00:00:04.60 bitrate=1823.7kbits/s speed=0.0184x elapsed=0:04:10.48    \nframe=  140 fps=0.6 q=45.4 size=    1024KiB time=00:00:04.60 bitrate=1823.7kbits/s speed=0.0183x elapsed=0:04:11.00    \nframe=  141 fps=0.6 q=45.8 size=    1024KiB time=00:00:04.63 bitrate=1810.6kbits/s speed=0.0184x elapsed=0:04:11.52    \nframe=  141 fps=0.6 q=45.8 size=    1024KiB time=00:00:04.63 bitrate=1810.6kbits/s speed=0.0184x elapsed=0:04:12.07    \nframe=  141 fps=0.6 q=45.8 size=    1024KiB time=00:00:04.63 bitrate=1810.6kbits/s speed=0.0183x elapsed=0:04:12.61    \nframe=  141 fps=0.6 q=45.8 size=    1024KiB time=00:00:04.63 bitrate=1810.6kbits/s speed=0.0183x elapsed=0:04:13.18    \nframe=  141 fps=0.6 q=45.8 size=    1024KiB time=00:00:04.63 bitrate=1810.6kbits/s speed=0.0183x elapsed=0:04:13.77    \nframe=  141 fps=0.6 q=45.8 size=    1024KiB time=00:00:04.63 bitrate=1810.6kbits/s speed=0.0182x elapsed=0:04:14.32    \nframe=  142 fps=0.6 q=40.6 size=    1024KiB time=00:00:04.66 bitrate=1797.6kbits/s speed=0.0183x elapsed=0:04:14.83    \nframe=  142 fps=0.6 q=40.6 size=    1024KiB time=00:00:04.66 bitrate=1797.6kbits/s speed=0.0183x elapsed=0:04:15.36    \nframe=  144 fps=0.6 q=45.6 size=    1024KiB time=00:00:04.73 bitrate=1772.3kbits/s speed=0.0185x elapsed=0:04:15.87    \nframe=  144 fps=0.6 q=45.6 size=    1024KiB time=00:00:04.73 bitrate=1772.3kbits/s speed=0.0185x elapsed=0:04:16.39    \nframe=  145 fps=0.6 q=45.6 size=    1024KiB time=00:00:04.76 bitrate=1759.9kbits/s speed=0.0186x elapsed=0:04:16.91    \nframe=  145 fps=0.6 q=45.6 size=    1024KiB time=00:00:04.76 bitrate=1759.9kbits/s speed=0.0185x elapsed=0:04:17.45    \nframe=  145 fps=0.6 q=45.6 size=    1024KiB time=00:00:04.76 bitrate=1759.9kbits/s speed=0.0185x elapsed=0:04:17.99    \nframe=  146 fps=0.6 q=45.7 size=    1024KiB time=00:00:04.80 bitrate=1747.7kbits/s speed=0.0186x elapsed=0:04:18.52    \nframe=  147 fps=0.6 q=42.8 size=    1024KiB time=00:00:04.83 bitrate=1735.6kbits/s speed=0.0187x elapsed=0:04:19.03    \nframe=  147 fps=0.6 q=42.8 size=    1024KiB time=00:00:04.83 bitrate=1735.6kbits/s speed=0.0186x elapsed=0:04:19.57    \nframe=  147 fps=0.6 q=42.8 size=    1024KiB time=00:00:04.83 bitrate=1735.6kbits/s speed=0.0186x elapsed=0:04:20.09    \nframe=  148 fps=0.6 q=43.1 size=    1024KiB time=00:00:04.86 bitrate=1723.8kbits/s speed=0.0187x elapsed=0:04:20.62    \n[mp4 @ 000001c517399740] Starting second pass: moving the moov atom to the beginning of the file\n[out#0/mp4 @ 000001c51738ab00] video:1200KiB audio:0KiB subtitle:0KiB other streams:0KiB global headers:2KiB muxing overhead: 0.424649%\nframe=  150 fps=0.6 q=43.6 Lsize=    1205KiB time=00:00:04.93 bitrate=2000.3kbits/s speed=0.0189x elapsed=0:04:20.98    \nx265 [info]: frame I:      1, Avg QP:39.75  kb/s: 13608.72\nx265 [info]: frame P:     36, Avg QP:39.94  kb/s: 5899.73 \nx265 [info]: frame B:    113, Avg QP:44.52  kb/s: 607.53  \nx265 [info]: Weighted P-Frames: Y:63.9% UV:58.3%\n\nencoded 150 frames in 260.60s (0.58 fps), 1964.33 kb/s, Avg QP:43.39\n",
  "seconds": 261.3246500492096,
  "probe_out": {}
}